<?xml version="1.0" encoding="UTF-8" standalone="no"?>
<!-- Created with Inkscape (http://www.inkscape.org/) -->

<svg
   width="210mm"
   height="297mm"
   viewBox="0 0 210 297"
   version="1.1"
   id="svg8"
   inkscape:export-filename="logo.png"
   inkscape:export-xdpi="96"
   inkscape:export-ydpi="96"
   inkscape:version="1.2.1 (9c6d41e410, 2022-07-14)"
   sodipodi:docname="logo.svg"
   xmlns:inkscape="http://www.inkscape.org/namespaces/inkscape"
   xmlns:sodipodi="http://sodipodi.sourceforge.net/DTD/sodipodi-0.dtd"
   xmlns="http://www.w3.org/2000/svg"
   xmlns:svg="http://www.w3.org/2000/svg"
   xmlns:rdf="http://www.w3.org/1999/02/22-rdf-syntax-ns#"
   xmlns:cc="http://creativecommons.org/ns#"
   xmlns:dc="http://purl.org/dc/elements/1.1/">
  <defs
     id="defs2">
    <rect
       x="106"
       y="695.99998"
       width="637.99999"
       height="234"
       id="rect226" />
  </defs>
  <sodipodi:namedview
     id="base"
     pagecolor="#ffffff"
     bordercolor="#666666"
     borderopacity="1.0"
     inkscape:pageopacity="0.0"
     inkscape:pageshadow="2"
     inkscape:zoom="0.50000001"
     inkscape:cx="148"
     inkscape:cy="601.99998"
     inkscape:document-units="mm"
     inkscape:current-layer="layer1"
     showgrid="false"
     inkscape:window-width="1680"
     inkscape:window-height="987"
     inkscape:window-x="1912"
     inkscape:window-y="11"
     inkscape:window-maximized="1"
     inkscape:showpageshadow="0"
     inkscape:pagecheckerboard="1"
     inkscape:deskcolor="#d1d1d1" />
  <metadata
     id="metadata5">
    <rdf:RDF>
      <cc:Work
         rdf:about="">
        <dc:format>image/svg+xml</dc:format>
        <dc:type
           rdf:resource="http://purl.org/dc/dcmitype/StillImage" />
        <dc:title />
      </cc:Work>
    </rdf:RDF>
  </metadata>
  <g
     inkscape:label="Layer 1"
     inkscape:groupmode="layer"
     id="layer1">
    <path
       id="path889"
       style="fill:none;stroke:#000000;stroke-width:2.001;stroke-linecap:butt;stroke-linejoin:miter;stroke-miterlimit:4;stroke-dasharray:none;stroke-opacity:1"
       d="M 12.049199,150.46929 189.60534,149.35691 M 149.0363,47.790706 l 6.89426,2.784667 5.03971,-0.759021 3.27008,1.066644 2.58892,-0.967947 m -60.05549,-11.206283 8.20219,-2.533127 5.46993,1.668153 6.61698,-3.773793 m -70.509846,48.333328 6.630259,5.44618 6.645864,-1.999745 6.539256,1.518625 4.827146,-6.511344 M 118.70279,7.662294 86.677013,91.154107 M 140.48919,75.605535 118.70279,7.662294 m 40.31376,7.921686 30.58879,133.77293 M 12.049199,150.46929 70.59376,60.72543 117.69013,149.75039 159.01655,15.583981"
       inkscape:connector-curvature="0" />
    <path
       style="opacity:1;fill:#424266;fill-opacity:0;fill-rule:evenodd;stroke:#000000;stroke-width:0.428929;stroke-linecap:square;stroke-linejoin:round;stroke-miterlimit:4;stroke-dasharray:none;stroke-dashoffset:0;stroke-opacity:1;paint-order:fill markers stroke"
       d="m 13.334447,149.71975 c 0.01774,-0.0475 9.768028,-15.00986 21.667311,-33.24966 l 21.635063,-33.163278 3.176713,2.61234 c 1.747193,1.436785 3.215875,2.612675 3.263739,2.613095 0.04787,4.2e-4 1.590146,-0.45227 3.42729,-1.00598 l 3.340265,-1.00673 3.39366,0.78532 c 1.866512,0.43192 3.422528,0.7521 3.45781,0.71151 0.03529,-0.0406 1.045388,-1.39815 2.244672,-3.016788 l 2.180517,-2.942984 0.161464,0.270178 c 0.360771,0.603681 35.338619,66.791327 35.310059,66.816297 -0.017,0.0148 -4.70877,0.0564 -10.42618,0.0922 -5.71742,0.0359 -14.499099,0.0917 -19.514843,0.12409 -5.015743,0.0324 -17.688559,0.11122 -28.161816,0.17525 -20.819126,0.12728 -29.020443,0.18053 -37.65943,0.24449 -7.034314,0.0521 -7.536431,0.0481 -7.496294,-0.0594 z"
       id="path1089"
       inkscape:connector-curvature="0" />
    <path
       style="opacity:1;fill:#a0a0a0;fill-opacity:1;fill-rule:evenodd;stroke:#000000;stroke-width:0.428929;stroke-linecap:square;stroke-linejoin:round;stroke-miterlimit:4;stroke-dasharray:none;stroke-dashoffset:0;stroke-opacity:1;paint-order:fill markers stroke"
       d="M 102.4725,119.58925 C 94.189275,103.9269 87.426138,91.061687 87.443314,90.999917 c 0.08813,-0.31701 19.787616,-51.642797 19.847706,-51.71196 0.0388,-0.04468 1.78435,-0.611175 3.87898,-1.25888 l 3.8084,-1.177647 2.6909,0.819928 c 1.48,0.450958 2.74835,0.820428 2.81857,0.821038 0.0702,6.11e-4 1.51516,-0.790641 3.21098,-1.758338 l 3.0833,-1.759449 2.61856,8.164024 c 1.44022,4.490212 4.37652,13.646962 6.52513,20.348334 l 3.90656,12.184313 -11.03016,35.80575 c -6.06659,19.69316 -11.08397,35.98203 -11.14974,36.19749 l -0.11958,0.39175 z"
       id="path1117"
       inkscape:connector-curvature="0" />
    <path
       style="opacity:1;fill:#a0a0a0;fill-opacity:1;fill-rule:evenodd;stroke:#000000;stroke-width:0.428929;stroke-linecap:square;stroke-linejoin:round;stroke-miterlimit:4;stroke-dasharray:none;stroke-dashoffset:0;stroke-opacity:1;paint-order:fill markers stroke"
       d="m 118.61203,149.04237 c 8.7e-4,-0.10066 30.82451,-100.19898 30.88381,-100.293734 0.0206,-0.03289 1.42566,0.503635 3.12239,1.192287 1.69673,0.688653 3.21255,1.250454 3.36849,1.248448 0.15594,-0.002 1.32675,-0.163419 2.6018,-0.358698 l 2.31828,-0.355052 1.66432,0.544439 1.66432,0.544437 1.06349,-0.386507 c 0.58492,-0.212582 1.07614,-0.373642 1.09159,-0.357915 0.0155,0.01572 5.06038,22.03538 11.21093,48.932562 l 11.18282,48.903963 -1.70358,0.0489 c -0.93698,0.0269 -5.02061,0.0671 -9.07476,0.0893 -7.05976,0.0387 -25.02309,0.14677 -38.84055,0.23358 -3.58638,0.0225 -9.05104,0.0605 -12.14368,0.0843 -7.09842,0.0547 -8.41067,0.0437 -8.40967,-0.0702 z"
       id="path1119"
       inkscape:connector-curvature="0" />
    <path
       style="fill:none;stroke:#000000;stroke-width:0.264583px;stroke-linecap:butt;stroke-linejoin:miter;stroke-opacity:1"
       d="m 117.08743,150.28028 1.42317,-0.005"
       id="path1154"
       inkscape:connector-curvature="0" />
    <path
       style="opacity:1;fill:#a0a0a0;fill-opacity:1;fill-rule:evenodd;stroke:#ffffff;stroke-width:0;stroke-linecap:square;stroke-linejoin:round;stroke-miterlimit:4;stroke-dasharray:none;stroke-dashoffset:0;stroke-opacity:1;paint-order:fill markers stroke"
       d="m 98.582997,149.0476 3e-6,-0.0192 0.187068,-0.003 c 0.102886,-10e-4 1.088409,-0.008 2.190042,-0.015 1.10164,-0.007 2.26529,-0.0143 2.58589,-0.0166 0.3206,-0.002 1.14102,-0.008 1.82315,-0.0123 0.68213,-0.005 1.50161,-0.0101 1.82108,-0.0123 0.31946,-0.002 0.85431,-0.006 1.18855,-0.008 0.33425,-0.002 0.86259,-0.006 1.17409,-0.008 2.04159,-0.0149 2.55829,-0.0189 3.18327,-0.0249 2.20742,-0.0211 3.41864,-0.0334 3.41998,-0.0347 0.002,-0.002 -0.32461,-0.62999 -0.75871,-1.46172 -0.49804,-0.95424 -1.19854,-2.28854 -2.39066,-4.55373 -0.44755,-0.85039 -0.815,-1.54952 -0.81658,-1.55362 -0.003,-0.007 -5.3e-4,-0.007 0.0208,-0.006 l 0.0237,10e-4 0.35761,0.678 c 1.6541,3.13609 3.08536,5.8555 3.56182,6.76754 l 0.0885,0.1695 -0.14092,0.003 c -0.49346,0.01 -3.25682,0.0351 -5.74885,0.0531 -0.31491,0.002 -0.82651,0.006 -1.13688,0.008 -0.31037,0.002 -0.84987,0.006 -1.19889,0.008 -0.34903,0.002 -0.76946,0.005 -0.93431,0.006 -0.16485,10e-4 -0.59366,0.004 -0.95292,0.006 -1.09093,0.007 -2.57548,0.016 -3.27008,0.0205 -0.94534,0.006 -1.79544,0.0115 -2.960025,0.0187 -0.56162,0.003 -1.087636,0.007 -1.168924,0.007 l -0.147796,10e-4 z"
       id="path1164"
       inkscape:connector-curvature="0"
       inkscape:export-xdpi="96"
       inkscape:export-ydpi="96" />
    <path
       style="opacity:1;fill:#a0a0a0;fill-opacity:1;fill-rule:evenodd;stroke:#ffffff;stroke-width:0;stroke-linecap:square;stroke-linejoin:round;stroke-miterlimit:4;stroke-dasharray:none;stroke-dashoffset:0;stroke-opacity:1;paint-order:fill markers stroke"
       d="m 14.078348,149.02237 c 1.264592,-1.95445 29.313307,-44.96542 39.695573,-60.870703 1.591075,-2.437473 2.922389,-4.423502 2.958473,-4.413395 0.03609,0.01011 0.889127,0.696309 1.895644,1.524894 2.644606,2.177092 4.193495,3.417634 4.334121,3.471297 0.155483,0.05933 0.08277,0.07906 3.779766,-1.025848 l 3.108852,-0.929138 2.480469,0.56664 c 3.314268,0.757111 4.182898,0.93177 4.383521,0.881417 0.125653,-0.03154 0.699553,-0.758021 2.273617,-2.8781 l 2.105539,-2.835916 0.205197,0.371679 c 0.934104,1.691976 29.80214,56.316133 30.78386,58.249283 0.35102,0.69122 1.3921,2.69385 2.3135,4.45028 0.92139,1.75643 1.65383,3.21495 1.62763,3.24115 -0.0262,0.0262 -2.83567,0.0679 -6.24329,0.0927 -3.40761,0.0248 -9.48477,0.0776 -13.504783,0.11734 -4.020013,0.0398 -12.265091,0.10175 -18.322396,0.13771 -26.67283,0.15836 -43.974672,0.26758 -52.023696,0.32841 -4.765806,0.036 -9.461509,0.0656 -10.434894,0.0658 H 13.72526 l 0.353088,-0.54571 z"
       id="path1193"
       inkscape:connector-curvature="0" />
    <text
       xml:space="preserve"
       transform="matrix(0.26458333,0,0,0.26458333,-8.4666671,-24.870833)"
       id="text224"
       style="font-size:96px;letter-spacing:3.59px;word-spacing:0px;white-space:pre;shape-inside:url(#rect226);fill:#0000ff"
       x="177.0416"
       y="0"><tspan
         x="190.57969"
         y="783.58371"
         id="tspan446"><tspan
           style="font-style:italic;font-weight:bold;-inkscape-font-specification:'sans-serif, Bold Italic';text-align:center;text-anchor:middle;fill:#000000"
           id="tspan444">WIACUS
</tspan></tspan><tspan
         x="208.4625"
         y="903.58371"
         id="tspan450"><tspan
           style="font-style:italic;font-weight:bold;-inkscape-font-specification:'sans-serif, Bold Italic';text-align:center;text-anchor:middle;fill:#000000"
           id="tspan448">TRAVEL</tspan></tspan></text>
  </g>
</svg>
